<svg width="20" height="20" viewBox="0 0 20 20" fill="none" xmlns="http://www.w3.org/2000/svg">
<g clip-path="url(#clip0_230_979)">
<path d="M5.21739 19.7965H0V6.31836H5.21739V19.7965ZM0.869512 18.927H4.34788V7.18787H0.869512V18.927Z" fill="white" fill-opacity="0.6"/>
<path d="M20.0005 19.7965H14.7831V12.4053C14.7831 11.6849 14.1991 11.1009 13.4788 11.1009C12.7583 11.1009 12.1744 11.6849 12.1744 12.4053V19.7965H6.95703V6.31836H12.1744V7.19329C12.9619 6.62391 13.9091 6.31772 14.8809 6.31836C17.7015 6.31836 20.0005 8.60638 20.0005 11.4216V19.7965ZM15.6526 18.927H19.1308V11.4216C19.1249 9.07943 17.223 7.18485 14.8809 7.18787C13.8103 7.18787 12.8048 7.63895 12.0548 8.45417L11.3048 9.2748V7.18787H7.82654V18.927H11.3048V12.4053C11.3048 11.2046 12.2781 10.2314 13.4788 10.2314C14.6793 10.2314 15.6526 11.2046 15.6526 12.4053V18.927Z" fill="white" fill-opacity="0.6"/>
<path d="M2.6087 5.44786C1.16789 5.44786 0 4.27997 0 2.83916C0 1.39852 1.16789 0.230469 2.6087 0.230469C4.0495 0.230469 5.21739 1.39852 5.21739 2.83916C5.21437 4.27869 4.04822 5.44499 2.6087 5.44786ZM2.6087 1.10014C1.64827 1.10014 0.869512 1.87874 0.869512 2.83916C0.869512 3.79975 1.64827 4.57835 2.6087 4.57835C3.56912 4.57835 4.34788 3.79975 4.34788 2.83916C4.34788 1.87874 3.56912 1.10014 2.6087 1.10014Z" fill="white" fill-opacity="0.6"/>
</g>
<defs>
<clipPath id="clip0_230_979">
<rect width="20" height="20" fill="white"/>
</clipPath>
</defs>
</svg>
