<svg width="28" height="22" viewBox="0 0 28 22" fill="none" xmlns="http://www.w3.org/2000/svg">
<path d="M25.6666 0.5H2.33335C1.04645 0.5 0 1.54645 0 2.83335V19.1667C0 20.4536 1.04645 21.5 2.33335 21.5H25.6667C26.9536 21.5 28 20.4536 28 19.1666V2.83335C28 1.54645 26.9536 0.5 25.6666 0.5ZM2.33335 1.66665H25.6667C25.7527 1.66665 25.8284 1.69798 25.9091 1.7157C23.889 3.56452 17.1906 9.69237 14.8466 11.8043C14.6631 11.9696 14.3675 12.1666 14.0001 12.1666C13.6326 12.1666 13.337 11.9696 13.1529 11.8038C10.8091 9.69215 4.11037 3.56398 2.09059 1.71581C2.17142 1.69809 2.24733 1.66665 2.33335 1.66665ZM1.16665 19.1666V2.83335C1.16665 2.71905 1.2011 2.61537 1.23195 2.51091C2.77807 3.92601 7.45188 8.20169 10.4824 10.9576C7.46173 13.5523 2.78671 17.9846 1.22828 19.4707C1.20077 19.3715 1.16665 19.2745 1.16665 19.1666ZM25.6666 20.3334H2.33335C2.24016 20.3334 2.15731 20.3009 2.0703 20.2801C3.68069 18.7449 8.38545 14.2871 11.3531 11.7483C11.7399 12.0993 12.0933 12.4192 12.3719 12.6703C12.8527 13.1044 13.4155 13.3334 14 13.3334C14.5845 13.3334 15.1473 13.1043 15.6275 12.6708C15.9062 12.4197 16.2599 12.0994 16.6469 11.7483C19.6147 14.2868 24.3188 18.7443 25.9297 20.2801C25.8427 20.3009 25.7599 20.3334 25.6666 20.3334ZM26.8334 19.1666C26.8334 19.2744 26.7992 19.3715 26.7718 19.4707C25.2127 17.9839 20.5383 13.552 17.5176 10.9576C20.5483 8.20175 25.2214 3.92645 26.7681 2.5108C26.7989 2.61526 26.8334 2.719 26.8334 2.8333V19.1666Z" fill="white"/>
</svg>
