<svg width="28" height="28" viewBox="0 0 28 28" fill="none" xmlns="http://www.w3.org/2000/svg">
<path d="M27.1908 21.1233L22.9182 17.3069C22.034 16.5173 20.7195 16.4803 19.7924 17.219C19.3324 17.5855 18.7525 18.0485 18.0539 18.6082C17.5263 19.0309 16.8176 19.0682 16.2485 18.703C14.6756 17.6938 13.4017 16.694 12.3541 15.6463C11.3064 14.5986 10.3066 13.3248 9.2975 11.752C8.93235 11.1829 8.96959 10.4742 9.39238 9.9465C9.952 9.24792 10.415 8.66796 10.7816 8.20804C11.5202 7.28098 11.4832 5.96641 10.6937 5.08233L6.87726 0.809551C6.41679 0.293904 5.80801 0.0141781 5.11681 0.000615597C4.42617 -0.0143141 3.80629 0.242607 3.3258 0.739552L1.21421 2.92398C-0.389605 4.58309 -0.404863 7.27098 1.17002 10.6969C2.51665 13.6261 4.94548 16.9266 8.00923 19.9904C11.073 23.0544 14.3737 25.4834 17.3031 26.8302C19.0002 27.6105 20.5161 28.0004 21.8158 28.0004C23.1397 28.0004 24.2391 27.5956 25.0765 26.7862L27.2608 24.6746C27.7579 24.1942 28.0134 23.5749 27.9998 22.8837C27.9863 22.1925 27.7065 21.5838 27.1908 21.1233ZM26.6528 24.0455L24.4683 26.1571C22.7275 27.8398 19.8097 27.0195 17.6686 26.0352C14.831 24.7307 11.6203 22.3641 8.62796 19.3717C5.63569 16.3794 3.26947 13.1688 1.96507 10.3313C0.980806 8.19038 0.160769 5.27281 1.84334 3.53216L3.95493 1.34778C4.26637 1.02551 4.65126 0.868286 5.09953 0.87545C5.54759 0.884254 5.92608 1.05822 6.22462 1.39246L10.041 5.66525C10.5456 6.23022 10.5693 7.07033 10.0972 7.66281C9.73112 8.12229 9.26852 8.7016 8.7095 9.39946C8.048 10.2251 7.98971 11.334 8.56103 12.2245C9.60441 13.8507 10.6428 15.1724 11.7354 16.2651C12.828 17.3576 14.1496 18.396 15.776 19.4395C16.6665 20.0107 17.7754 19.9526 18.601 19.291C19.2989 18.732 19.8782 18.2694 20.3377 17.9033C20.9301 17.4312 21.7703 17.4548 22.3353 17.9595L26.608 21.7759C26.9422 22.0744 27.1162 22.4529 27.125 22.901C27.1339 23.349 26.975 23.7341 26.6528 24.0455ZM4.05293 10.1176C4.16246 10.333 4.07671 10.5964 3.86136 10.7059C3.79781 10.7383 3.73005 10.7536 3.66333 10.7536C3.50392 10.7536 3.35025 10.6661 3.27303 10.5143C2.5342 9.06204 1.42257 6.38597 2.27837 4.78018C2.37222 4.60409 2.49138 4.44085 2.63248 4.29489C2.80042 4.1212 3.07736 4.11644 3.2511 4.2845C3.42484 4.45239 3.42949 4.72943 3.26154 4.90312C3.17585 4.99171 3.10683 5.08616 3.05056 5.19176C2.33678 6.53106 3.6373 9.30064 4.05293 10.1176Z" fill="white"/>
</svg>
