<svg width="22" height="28" viewBox="0 0 22 28" fill="none" xmlns="http://www.w3.org/2000/svg">
<path d="M10.9996 0C5.29615 0 0.65625 4.6399 0.65625 10.3433C0.65625 12.2209 1.49832 14.2403 1.53361 14.3255C1.80558 14.9711 2.34221 15.9738 2.72917 16.5615L9.82105 27.307C10.1113 27.7475 10.5408 28 10.9996 28C11.4583 28 11.8879 27.7475 12.1781 27.3076L19.2706 16.5615C19.6582 15.9738 20.1942 14.9711 20.4662 14.3255C20.5014 14.2409 21.3429 12.2216 21.3429 10.3433C21.3429 4.6399 16.703 0 10.9996 0ZM19.3442 13.8534C19.1014 14.432 18.6019 15.3647 18.2545 15.8916L11.162 26.6377C11.0221 26.8501 10.9777 26.8501 10.8377 26.6377L3.74525 15.8916C3.39784 15.3647 2.89832 14.4314 2.65555 13.8528C2.64521 13.8278 1.87311 11.9691 1.87311 10.3433C1.87311 5.311 5.96725 1.21686 10.9996 1.21686C16.0319 1.21686 20.126 5.311 20.126 10.3433C20.126 11.9715 19.3521 13.8351 19.3442 13.8534Z" fill="white"/>
<path d="M10.9993 4.86816C7.97967 4.86816 5.52344 7.32501 5.52344 10.344C5.52344 13.3631 7.97967 15.8199 10.9993 15.8199C14.019 15.8199 16.4752 13.3631 16.4752 10.344C16.4752 7.32501 14.019 4.86816 10.9993 4.86816ZM10.9993 14.6031C8.65138 14.6031 6.7403 12.6926 6.7403 10.344C6.7403 7.9955 8.65138 6.08503 10.9993 6.08503C13.3473 6.08503 15.2583 7.9955 15.2583 10.344C15.2583 12.6926 13.3473 14.6031 10.9993 14.6031Z" fill="white"/>
</svg>
