<svg width="50" height="51" viewBox="0 0 50 51" fill="none" xmlns="http://www.w3.org/2000/svg">
<path d="M49.8201 13.5096L41.4113 1.74194C41.2121 1.46301 40.8878 1.32872 40.6014 1.33311H9.39915C9.07432 1.32881 8.77107 1.48654 8.58863 1.74194C8.44467 1.94352 0.252552 13.4077 0.178132 13.5124C-0.0559707 13.8426 -0.0640768 14.3023 0.182038 14.6483C4.05679 20.0255 24.2176 48.0036 24.2088 47.9915C24.5945 48.5239 25.3977 48.5345 25.791 47.9915C25.8467 47.9145 49.7763 14.7062 49.8202 14.6445C50.068 14.2972 50.0517 13.8239 49.8201 13.5096ZM39.1629 3.28641L35.4892 12.2831L27.2236 3.28641H39.1629ZM33.5879 13.1007H16.4121L25 3.75344L33.5879 13.1007ZM22.7764 3.28641L14.5107 12.2831L10.8371 3.28641H22.7764ZM9.14854 4.31814L12.7348 13.1007H2.8727L9.14854 4.31814ZM2.88198 15.054H13.4784L22.1482 41.7909L2.88198 15.054ZM25 44.2527L15.5319 15.054H34.4681L25 44.2527ZM27.8517 41.7909L36.5215 15.054H47.118L27.8517 41.7909ZM37.2652 13.1007L40.8515 4.31814L47.1273 13.1007H37.2652Z" fill="#1A1A1A"/>
</svg>
