<svg width="50" height="51" viewBox="0 0 50 51" fill="none" xmlns="http://www.w3.org/2000/svg">
<path d="M47.783 17.9219H31.9686L27.1074 2.86907C26.964 2.42293 26.6826 2.03382 26.3039 1.75778C25.9252 1.48174 25.4686 1.33301 25 1.33301C24.5314 1.33301 24.0748 1.48174 23.6961 1.75778C23.3174 2.03382 23.036 2.42293 22.8926 2.86907L18.0314 17.9219H2.21702C1.74823 17.9231 1.2918 18.0725 0.913014 18.3487C0.53423 18.6249 0.252486 19.0138 0.108075 19.4598C-0.0363352 19.9058 -0.0360167 20.3861 0.108984 20.8319C0.253985 21.2777 0.536241 21.6662 0.915391 21.942L13.728 31.2039L8.81373 46.2568C8.66714 46.702 8.66568 47.1823 8.80957 47.6285C8.95345 48.0746 9.23525 48.4636 9.61436 48.7393C9.99347 49.015 10.4503 49.1632 10.9191 49.1627C11.3878 49.1621 11.8443 49.0127 12.2228 48.7361L25 39.4299L37.7772 48.7095C38.1557 48.9862 38.6122 49.1355 39.0809 49.1361C39.5497 49.1367 40.0065 48.9884 40.3856 48.7127C40.7647 48.437 41.0465 48.0481 41.1904 47.6019C41.3343 47.1558 41.3329 46.6755 41.1863 46.2302L36.2719 31.1773L49.0846 21.942C49.4638 21.6662 49.746 21.2777 49.891 20.8319C50.036 20.3861 50.0363 19.9058 49.8919 19.4598C49.7475 19.0138 49.4658 18.6249 49.087 18.3487C48.7082 18.0725 48.2518 17.9231 47.783 17.9219ZM34.6693 29.309C34.2865 29.5832 34.0012 29.9723 33.8547 30.4197C33.7082 30.8672 33.7082 31.3497 33.8546 31.7972L38.583 46.2568L26.3016 37.287C25.9261 37.0054 25.4694 36.8532 25 36.8532C24.5306 36.8532 24.0739 37.0054 23.6984 37.287L11.4081 46.2568L16.1454 31.7972C16.2913 31.3505 16.292 30.8691 16.1472 30.422C16.0024 29.975 15.7197 29.5853 15.3396 29.309L3.00508 20.3924H18.2173C18.6876 20.3963 19.1465 20.2485 19.5261 19.9709C19.9057 19.6934 20.1858 19.3009 20.3248 18.8517L25 4.41863L29.6752 18.8871C29.8142 19.3363 30.0943 19.7288 30.4739 20.0064C30.8535 20.2839 31.3124 20.4317 31.7826 20.4278H46.9949L34.6693 29.309Z" fill="#1A1A1A"/>
</svg>
