<svg width="50" height="50" viewBox="0 0 50 50" fill="none" xmlns="http://www.w3.org/2000/svg">
<path fill-rule="evenodd" clip-rule="evenodd" d="M39.733 15.7323C40.2451 16.1527 40.3198 16.9088 39.8993 17.4212L24.6394 36.0192C23.2778 37.6786 20.7758 37.7854 19.2779 36.248L10.9108 27.6608C10.4483 27.186 10.4582 26.4264 10.9329 25.964C11.4076 25.5015 12.1673 25.5113 12.6298 25.986L20.9969 34.5732C21.4961 35.0856 22.3301 35.0501 22.7839 34.4969L38.0441 15.8988C38.4643 15.3865 39.2206 15.3119 39.733 15.7323Z" fill="#1A1A1A"/>
<path fill-rule="evenodd" clip-rule="evenodd" d="M25.333 46.933C37.2625 46.933 46.933 37.2625 46.933 25.333C46.933 13.4037 37.2625 3.73301 25.333 3.73301C13.4037 3.73301 3.73301 13.4037 3.73301 25.333C3.73301 37.2625 13.4037 46.933 25.333 46.933ZM25.333 49.333C38.5877 49.333 49.333 38.5877 49.333 25.333C49.333 12.0782 38.5877 1.33301 25.333 1.33301C12.0782 1.33301 1.33301 12.0782 1.33301 25.333C1.33301 38.5877 12.0782 49.333 25.333 49.333Z" fill="#1A1A1A"/>
</svg>
