<svg width="50" height="51" viewBox="0 0 50 51" fill="none" xmlns="http://www.w3.org/2000/svg">
<path d="M49.9997 30.7778C49.9985 29.9141 49.7508 29.0687 49.2856 28.3409C48.8205 27.6132 48.1572 27.0333 47.3739 26.6695C47.9241 26.1015 48.2947 25.3838 48.4394 24.6063C48.584 23.8288 48.4963 23.026 48.1873 22.298C47.8782 21.5701 47.3615 20.9494 46.7016 20.5134C46.0418 20.0775 45.2681 19.8457 44.4772 19.8471H32.7781L36.2731 13.3013C37.169 11.6201 37.6383 9.74462 37.6398 7.83963V6.42298C37.6382 5.07365 37.1016 3.78002 36.1475 2.82582C35.1935 1.87163 33.9 1.33477 32.5506 1.33301H32.4306C31.6613 1.33389 30.9238 1.63988 30.3798 2.18386C29.8359 2.72783 29.5299 3.46536 29.529 4.23466V5.59715C29.5298 5.90553 29.4146 6.20295 29.2065 6.43048L17.9432 18.7904C17.7093 19.0466 17.4246 19.2513 17.1072 19.3914C16.7899 19.5316 16.4468 19.6042 16.0999 19.6046H13.3049V17.0712C13.3049 16.8502 13.2171 16.6383 13.0608 16.482C12.9046 16.3257 12.6926 16.2379 12.4716 16.2379H0.833328C0.612316 16.2379 0.400355 16.3257 0.244076 16.482C0.0877968 16.6383 0 16.8502 0 17.0712V48.1394C0 48.3604 0.0877968 48.5724 0.244076 48.7286C0.400355 48.8849 0.612316 48.9727 0.833328 48.9727H12.4716C12.6926 48.9727 12.9046 48.8849 13.0608 48.7286C13.2171 48.5724 13.3049 48.3604 13.3049 48.1394V45.5136H14.8174C15.4961 45.5127 16.1644 45.6807 16.7621 46.0025C17.3597 46.3243 17.8678 46.7898 18.2407 47.3569L18.2974 47.4402C18.8216 48.2377 19.5361 48.8922 20.3763 49.3446C21.2166 49.7971 22.1563 50.0333 23.1107 50.0319H42.2406C43.4307 50.0308 44.5717 49.5576 45.4134 48.7161C46.255 47.8747 46.7284 46.7337 46.7297 45.5436C46.7251 44.5071 46.3584 43.5049 45.6931 42.7103C46.6355 42.6641 47.5399 42.3248 48.2801 41.7396C49.0202 41.1545 49.5591 40.3527 49.8215 39.4464C50.0838 38.5401 50.0565 37.5744 49.7433 36.6844C49.4301 35.7943 48.8468 35.0243 48.0747 34.482C48.669 34.0641 49.1541 33.5094 49.4891 32.8648C49.8241 32.2201 49.9992 31.5043 49.9997 30.7778ZM46.8422 23.877C46.8415 24.5041 46.5922 25.1052 46.1488 25.5486C45.7054 25.992 45.1043 26.2414 44.4772 26.242H32.5506C31.9234 26.242 31.3219 25.9929 30.8783 25.5493C30.4348 25.1058 30.1856 24.5043 30.1856 23.877C30.1856 23.2498 30.4348 22.6483 30.8783 22.2047C31.3219 21.7612 31.9234 21.512 32.5506 21.512H44.4772C45.1043 21.5127 45.7054 21.7621 46.1488 22.2055C46.5922 22.6488 46.8415 23.25 46.8422 23.877ZM1.66666 17.9046H4.35497V47.3061H1.66666V17.9046ZM11.6383 47.3061H6.02163V17.9046H11.6383V47.3061ZM19.6874 46.5211L19.6315 46.4377C19.1073 45.6401 18.3927 44.9855 17.5522 44.5331C16.7118 44.0807 15.7719 43.8445 14.8174 43.8461H13.3049V21.2712H16.0999C16.6788 21.2706 17.2512 21.1494 17.7807 20.9156C18.3102 20.6818 18.7853 20.3403 19.1757 19.9129L30.439 7.54797C30.9256 7.01478 31.1955 6.31902 31.1956 5.59715V4.23132C31.1961 3.90392 31.3263 3.59005 31.5578 3.35854C31.7894 3.12703 32.1032 2.99677 32.4306 2.99633H32.5506C33.4581 2.99765 34.3279 3.35877 34.9695 4.00051C35.6111 4.64224 35.972 5.51221 35.9731 6.41964V7.8363C35.973 9.46693 35.5724 11.0726 34.8064 12.5121L30.7848 20.0437C30.7416 20.1285 30.7134 20.2201 30.7015 20.3146C30.1057 20.6175 29.5956 21.0653 29.218 21.6168C28.8404 22.1683 28.6074 22.8058 28.5405 23.4708C28.4735 24.1358 28.5747 24.807 28.8348 25.4227C29.0949 26.0384 29.5055 26.5789 30.029 26.9945C29.4125 27.4004 28.9046 27.9509 28.5496 28.598C28.1946 29.2451 28.0032 29.9692 27.9921 30.7072C27.981 31.4452 28.1506 32.1748 28.486 32.8323C28.8214 33.4897 29.3125 34.0552 29.9165 34.4795C29.3143 34.9025 28.8243 35.4659 28.489 36.121C28.1536 36.776 27.9829 37.5029 27.9917 38.2388C28.0004 38.9746 28.1884 39.6973 28.5394 40.3441C28.8903 40.991 29.3936 41.5425 30.0056 41.9511C29.5158 42.3074 29.1044 42.7604 28.7968 43.2822C28.4892 43.804 28.2921 44.3834 28.2175 44.9845C28.143 45.5856 28.1927 46.1956 28.3635 46.7767C28.5343 47.3578 28.8227 47.8976 29.2107 48.3627H23.1107C22.4321 48.3636 21.764 48.1958 21.1664 47.8743C20.5688 47.5528 20.0606 47.0878 19.6874 46.5211ZM42.2406 48.3644H32.6706C31.9223 48.3644 31.2046 48.0671 30.6754 47.5379C30.1463 47.0088 29.849 46.2911 29.849 45.5427C29.849 44.7944 30.1463 44.0767 30.6754 43.5475C31.2046 43.0184 31.9223 42.7211 32.6706 42.7211H42.2406C42.9889 42.7211 43.7066 43.0184 44.2358 43.5475C44.7649 44.0767 45.0622 44.7944 45.0622 45.5427C45.0622 46.2911 44.7649 47.0088 44.2358 47.5379C43.7066 48.0671 42.9889 48.3644 42.2406 48.3644ZM48.333 38.1844C48.3321 38.9453 48.0295 39.6748 47.4915 40.2129C46.9534 40.7509 46.2239 41.0535 45.4631 41.0544H32.5265C31.7653 41.0544 31.0353 40.7521 30.4971 40.2138C29.9589 39.6756 29.6565 38.9456 29.6565 38.1844C29.6565 37.4233 29.9589 36.6933 30.4971 36.1551C31.0353 35.6168 31.7653 35.3145 32.5265 35.3145H45.4631C46.2239 35.3153 46.9534 35.618 47.4915 36.156C48.0295 36.6941 48.3321 37.4235 48.333 38.1844ZM45.4631 33.6478H32.5265C32.1455 33.6543 31.7671 33.5849 31.4132 33.4436C31.0594 33.3023 30.7372 33.0919 30.4655 32.8248C30.1938 32.5577 29.9781 32.2392 29.8307 31.8878C29.6834 31.5364 29.6076 31.1592 29.6076 30.7782C29.6076 30.3972 29.6834 30.02 29.8307 29.6687C29.9781 29.3173 30.1938 28.9987 30.4655 28.7316C30.7372 28.4645 31.0594 28.2542 31.4132 28.1129C31.7671 27.9716 32.1455 27.9022 32.5265 27.9087H45.4631C45.844 27.9022 46.2224 27.9716 46.5763 28.1129C46.9301 28.2542 47.2523 28.4645 47.524 28.7316C47.7957 28.9987 48.0115 29.3173 48.1588 29.6687C48.3061 30.02 48.3819 30.3972 48.3819 30.7782C48.3819 31.1592 48.3061 31.5364 48.1588 31.8878C48.0115 32.2392 47.7957 32.5577 47.524 32.8248C47.2523 33.0919 46.9301 33.3023 46.5763 33.4436C46.2224 33.5849 45.844 33.6543 45.4631 33.6478Z" fill="#1A1A1A"/>
</svg>
