<svg width="70" height="70" viewBox="0 0 70 70" fill="none" xmlns="http://www.w3.org/2000/svg">
<rect width="70" height="70" rx="35" fill="#002D4C"/>
<g clip-path="url(#clip0_230_1236)">
<path d="M52.9578 19.6875C52.8799 18.2575 51.7425 17.1203 50.3125 17.0422C47.427 16.8846 41.7807 17.038 36.3815 19.8306C33.6291 21.2542 30.7182 23.668 28.3951 26.4529C28.3665 26.4873 28.3387 26.5218 28.3103 26.5562L23.0382 26.9634C22.1704 27.0305 21.3975 27.4853 20.9175 28.2112L17.3208 33.6515C16.9568 34.202 16.8989 34.891 17.1659 35.4945C17.4329 36.0981 17.9817 36.5187 18.6338 36.6197L23.0755 37.3076C23.0598 37.394 23.0441 37.4803 23.0297 37.5666C22.8818 38.4511 23.1749 39.3606 23.8137 39.9993L30.0007 46.1864C30.5303 46.716 31.246 47.008 31.9794 47.008C32.1304 47.008 32.2823 46.9956 32.4335 46.9703C32.5198 46.9559 32.6061 46.9402 32.6924 46.9245L33.3804 51.3663C33.4814 52.0184 33.902 52.5672 34.5054 52.8342C34.7565 52.9453 35.0222 53.0001 35.2868 53.0001C35.6582 53.0001 36.0271 52.8919 36.3485 52.6794L41.7888 49.0825C42.5147 48.6025 42.9695 47.8296 43.0365 46.9618L43.4437 41.6899C43.4781 41.6615 43.5127 41.6336 43.547 41.605C46.332 39.282 48.7458 36.371 50.1694 33.6186C52.9622 28.2192 53.1153 22.5727 52.9578 19.6875ZM40.6254 47.3229L35.4215 50.7635L34.751 46.4347C36.9504 45.788 39.1261 44.7523 41.1988 43.3649L40.9335 46.7993C40.917 47.0135 40.8047 47.2044 40.6254 47.3229ZM31.4922 44.6948L25.3052 38.5078C25.1473 38.3499 25.0744 38.1281 25.1101 37.9144C25.2941 36.8145 25.5799 35.7675 25.9337 34.7811L35.2169 44.0643C34.0323 44.4887 32.9712 44.7418 32.0856 44.8899C31.8716 44.9254 31.65 44.8527 31.4922 44.6948ZM23.2007 29.0665L26.6351 28.8012C25.2475 30.874 24.2118 33.0497 23.5652 35.249L19.2364 34.5786L22.6771 29.3746C22.7957 29.1953 22.9866 29.0831 23.2007 29.0665ZM42.196 39.9851C40.4921 41.4063 38.8382 42.4343 37.3137 43.1781L26.8215 32.686C27.7959 30.6959 28.9851 29.0387 30.0149 27.8041C32.1647 25.2268 34.8385 23.0035 37.3507 21.7041C42.3059 19.141 47.5267 19.003 50.1977 19.1484C50.5512 19.1677 50.8324 19.4488 50.8517 19.8024C50.9973 22.4735 50.859 27.6942 48.2959 32.6494C46.9966 35.1616 44.7732 37.8353 42.196 39.9851Z" fill="white"/>
<path d="M41.66 33.6109C43.0102 33.6108 44.3609 33.0968 45.3888 32.0689C46.3848 31.0729 46.9332 29.7486 46.9332 28.3401C46.9332 26.9316 46.3847 25.6074 45.3888 24.6114C43.3327 22.5552 39.9872 22.5554 37.9313 24.6114C36.9352 25.6074 36.3867 26.9316 36.3867 28.3401C36.3867 29.7486 36.9353 31.0729 37.9313 32.0689C38.9594 33.097 40.3094 33.611 41.66 33.6109ZM39.4227 26.1029C40.0395 25.486 40.8497 25.1776 41.6599 25.1776C42.4702 25.1776 43.2804 25.486 43.8971 26.1029C44.4947 26.7004 44.8238 27.495 44.8238 28.3401C44.8238 29.1852 44.4947 29.9798 43.8971 30.5773C42.6636 31.811 40.6562 31.8109 39.4226 30.5773C38.825 29.9798 38.4959 29.1852 38.4959 28.3401C38.4959 27.4951 38.8251 26.7004 39.4227 26.1029Z" fill="white"/>
<path d="M18.0761 46.6671C18.3461 46.6671 18.616 46.5641 18.8219 46.3581L22.2653 42.9147C22.6772 42.5028 22.6772 41.8351 22.2653 41.4232C21.8535 41.0113 21.1856 41.0113 20.7737 41.4232L17.3304 44.8666C16.9185 45.2785 16.9185 45.9462 17.3304 46.3581C17.5363 46.5641 17.8062 46.6671 18.0761 46.6671Z" fill="white"/>
<path d="M25.4207 44.5794C25.0088 44.1675 24.341 44.1675 23.9291 44.5794L17.3089 51.1997C16.897 51.6116 16.897 52.2793 17.3089 52.6912C17.5149 52.8972 17.7847 53.0001 18.0547 53.0001C18.3246 53.0001 18.5945 52.8972 18.8004 52.6912L25.4206 46.071C25.8326 45.6591 25.8326 44.9913 25.4207 44.5794Z" fill="white"/>
<path d="M27.0844 47.7347L23.6409 51.1781C23.2291 51.59 23.2291 52.2578 23.6409 52.6697C23.8469 52.8756 24.1168 52.9786 24.3867 52.9786C24.6565 52.9786 24.9265 52.8757 25.1324 52.6697L28.5758 49.2262C28.9877 48.8143 28.9877 48.1466 28.5758 47.7347C28.164 47.3228 27.4962 47.3228 27.0844 47.7347Z" fill="white"/>
</g>
<defs>
<clipPath id="clip0_230_1236">
<rect width="36" height="36" fill="white" transform="translate(17 17)"/>
</clipPath>
</defs>
</svg>
