<svg width="70" height="70" viewBox="0 0 70 70" fill="none" xmlns="http://www.w3.org/2000/svg">
<rect width="70" height="70" rx="35" fill="#002D4C"/>
<g clip-path="url(#clip0_230_1217)">
<path d="M50.6522 31.087H47.7221C47.4763 30.2848 47.1547 29.51 46.7642 28.772L48.8342 26.702C49.2771 26.259 49.5213 25.669 49.5213 25.0405C49.5213 24.4129 49.2771 23.8228 48.8342 23.3798L46.6194 21.165C45.7343 20.2799 44.1847 20.2776 43.298 21.165L41.228 23.235C40.4908 22.8445 39.7152 22.5237 38.913 22.2771V19.3478C38.913 18.0534 37.8597 17 36.5652 17H33.4348C32.1403 17 31.087 18.0534 31.087 19.3478V22.2779C30.2848 22.5244 29.51 22.8453 28.772 23.2358L26.7012 21.1658C25.7856 20.2502 24.2955 20.2502 23.3798 21.1658L21.1643 23.3806C20.2494 24.2963 20.2494 25.7863 21.1643 26.702L23.2343 28.7728C22.8437 29.51 22.5229 30.2856 22.2763 31.0877H19.3478C18.0534 31.0877 17 32.1411 17 33.4356V36.566C17 37.8597 18.0534 38.913 19.3478 38.913H22.2779C22.5244 39.7152 22.8453 40.49 23.2358 41.228L21.1658 43.2988C20.2502 44.2144 20.2502 45.7045 21.1658 46.6202L23.3806 48.8357C24.2963 49.7506 25.7863 49.7506 26.702 48.8357L28.7728 46.7657C29.51 47.1563 30.2856 47.4771 31.0877 47.7237V50.6522C31.0877 51.9466 32.1411 53 33.4356 53H36.566C37.8604 53 38.9138 51.9466 38.9138 50.6522V47.7221C39.716 47.4756 40.4916 47.1547 41.2288 46.7642L43.2988 48.835C44.1863 49.7217 45.7358 49.7201 46.6202 48.835L48.835 46.6202C49.2779 46.1772 49.5221 45.5871 49.5221 44.9595C49.5221 44.331 49.2779 43.7417 48.835 43.2988L46.765 41.228C47.1555 40.4908 47.4763 39.7152 47.7229 38.913H50.6522C51.9466 38.913 53 37.8597 53 36.5652V33.4348C53 32.1403 51.9466 31.087 50.6522 31.087ZM51.4348 36.5652C51.4348 36.9964 51.0842 37.3478 50.6522 37.3478H47.1304C46.7736 37.3478 46.4621 37.5897 46.3729 37.9348C46.0958 39.003 45.674 40.0228 45.1176 40.965C44.9368 41.2726 44.9861 41.6639 45.2381 41.9159L47.7268 44.4054C47.8739 44.5525 47.9553 44.749 47.9553 44.9595C47.9553 45.17 47.8739 45.3664 47.7268 45.5136L45.512 47.7283C45.2177 48.0226 44.6989 48.0226 44.4038 47.7283L41.9151 45.2397C41.6631 44.9869 41.2718 44.9383 40.9635 45.1191C40.0228 45.6748 39.003 46.0974 37.934 46.3737C37.5897 46.4621 37.3478 46.7736 37.3478 47.1304V50.6522C37.3478 51.0834 36.9972 51.4348 36.5652 51.4348H33.4348C33.0036 51.4348 32.6522 51.0834 32.6522 50.6522V47.1304C32.6522 46.7736 32.4103 46.4621 32.0652 46.3729C30.997 46.0966 29.9772 45.6748 29.035 45.1183C28.9113 45.0448 28.7743 45.0096 28.6374 45.0096C28.4347 45.0096 28.2343 45.0878 28.0833 45.2389L25.5946 47.7276C25.2886 48.0328 24.7924 48.0328 24.4864 47.7276L22.2717 45.5128C21.9657 45.2068 21.9657 44.7098 22.2717 44.4046L24.7603 41.9159C25.0131 41.6631 25.0624 41.2718 24.8809 40.965C24.3252 40.0228 23.9026 39.0038 23.6263 37.9348C23.5379 37.5897 23.2264 37.3478 22.8696 37.3478H19.3478C18.9166 37.3478 18.5652 36.9964 18.5652 36.5652V33.4348C18.5652 33.0036 18.9166 32.6522 19.3478 32.6522H22.8696C23.2264 32.6522 23.5379 32.4103 23.6271 32.0652C23.9034 30.997 24.3252 29.9772 24.8817 29.035C25.0632 28.7274 25.0139 28.3361 24.7611 28.0841L22.2724 25.5954C21.9672 25.2902 21.9672 24.7932 22.2724 24.4872L24.4872 22.2724C24.7932 21.9664 25.2894 21.9672 25.5954 22.2724L28.0841 24.7611C28.3369 25.0139 28.7274 25.064 29.035 24.8817C29.9772 24.326 30.9962 23.9034 32.0652 23.6271C32.4103 23.5379 32.6522 23.2264 32.6522 22.8696V19.3478C32.6522 18.9166 33.0036 18.5652 33.4348 18.5652H36.5652C36.9972 18.5652 37.3478 18.9166 37.3478 19.3478V22.8696C37.3478 23.2264 37.5897 23.5379 37.9348 23.6271C39.0038 23.9034 40.0236 24.326 40.9643 24.8817C41.2726 25.0632 41.6639 25.0147 41.9159 24.7611L44.4046 22.2724C44.6996 21.9766 45.2185 21.9774 45.5128 22.2724L47.7276 24.4872C47.8747 24.6343 47.9561 24.8316 47.9561 25.0413C47.9561 25.251 47.8747 25.4483 47.7276 25.5954L45.2389 28.0841C44.9869 28.3369 44.9368 28.7282 45.1183 29.035C45.6748 29.9772 46.0966 30.9962 46.3737 32.0652C46.4621 32.4103 46.7736 32.6522 47.1304 32.6522H50.6522C51.0842 32.6522 51.4348 33.0036 51.4348 33.4348V36.5652Z" fill="white"/>
<path d="M34.9995 27.9561C31.1162 27.9561 27.9561 31.1162 27.9561 34.9995C27.9561 38.8828 31.1162 42.043 34.9995 42.043C38.8836 42.043 42.043 38.8828 42.043 34.9995C42.043 31.1162 38.8836 27.9561 34.9995 27.9561ZM34.9995 40.4778C31.9787 40.4778 29.5213 38.0204 29.5213 34.9995C29.5213 31.9787 31.9787 29.5213 34.9995 29.5213C38.0196 29.5213 40.4778 31.9787 40.4778 34.9995C40.4778 38.0204 38.0196 40.4778 34.9995 40.4778Z" fill="white"/>
</g>
<defs>
<clipPath id="clip0_230_1217">
<rect width="36" height="36" fill="white" transform="translate(17 17)"/>
</clipPath>
</defs>
</svg>
