<svg width="70" height="70" viewBox="0 0 70 70" fill="none" xmlns="http://www.w3.org/2000/svg">
<rect width="70" height="70" rx="35" fill="#002D4C"/>
<path fill-rule="evenodd" clip-rule="evenodd" d="M45.6075 28.3279C45.9762 28.6306 46.0299 29.175 45.7272 29.5439L34.7401 42.9345C33.7598 44.1293 31.9583 44.2062 30.8798 43.0992L24.8555 36.9164C24.5225 36.5746 24.5296 36.0277 24.8714 35.6947C25.2132 35.3617 25.7602 35.3688 26.0932 35.7106L32.1175 41.8934C32.4769 42.2623 33.0774 42.2368 33.4041 41.8384L44.3915 28.4478C44.694 28.0789 45.2385 28.0252 45.6075 28.3279Z" fill="white"/>
<path fill-rule="evenodd" clip-rule="evenodd" d="M35.24 50.792C43.8292 50.792 50.792 43.8292 50.792 35.24C50.792 26.6508 43.8292 19.688 35.24 19.688C26.6508 19.688 19.688 26.6508 19.688 35.24C19.688 43.8292 26.6508 50.792 35.24 50.792ZM35.24 52.52C44.7834 52.52 52.52 44.7834 52.52 35.24C52.52 25.6965 44.7834 17.96 35.24 17.96C25.6965 17.96 17.96 25.6965 17.96 35.24C17.96 44.7834 25.6965 52.52 35.24 52.52Z" fill="white"/>
</svg>
