<svg width="70" height="70" viewBox="0 0 70 70" fill="none" xmlns="http://www.w3.org/2000/svg">
<rect width="70" height="70" rx="35" fill="#002D4C"/>
<path d="M42.637 25.9973C42.637 24.4156 42.168 22.8694 41.2893 21.5542C40.4105 20.2391 39.1615 19.2141 37.7002 18.6088C36.2389 18.0035 34.6309 17.8451 33.0796 18.1537C31.5282 18.4622 30.1033 19.2239 28.9848 20.3424C27.8664 21.4608 27.1047 22.8858 26.7961 24.4371C26.4876 25.9884 26.6459 27.5964 27.2512 29.0577C27.8565 30.519 28.8816 31.768 30.1967 32.6468C31.5119 33.5255 33.058 33.9946 34.6398 33.9946C36.76 33.9922 38.7928 33.1489 40.2921 31.6496C41.7913 30.1503 42.6347 28.1176 42.637 25.9973ZM28.7675 25.9973C28.7675 24.8359 29.1119 23.7005 29.7571 22.7348C30.4024 21.7691 31.3195 21.0165 32.3925 20.572C33.4656 20.1275 34.6463 20.0113 35.7854 20.2378C36.9245 20.4644 37.9708 21.0237 38.7921 21.845C39.6134 22.6662 40.1726 23.7126 40.3992 24.8517C40.6258 25.9908 40.5095 27.1715 40.0651 28.2445C39.6206 29.3175 38.8679 30.2347 37.9022 30.8799C36.9365 31.5252 35.8012 31.8696 34.6398 31.8696C33.0829 31.8678 31.5903 31.2486 30.4894 30.1477C29.3885 29.0468 28.7692 27.5542 28.7675 25.9973ZM19.0001 50.9375C19.0001 51.2193 19.112 51.4895 19.3113 51.6888C19.5105 51.8881 19.7808 52 20.0626 52H49.217C49.4988 52 49.769 51.8881 49.9683 51.6888C50.1675 51.4895 50.2795 51.2193 50.2795 50.9375C50.2795 47.8443 49.3622 44.8205 47.6437 42.2485C45.9252 39.6766 43.4826 37.672 40.6248 36.4883C37.767 35.3046 34.6224 34.9948 31.5886 35.5983C28.5548 36.2018 25.7681 37.6913 23.5808 39.8786C22.124 41.3275 20.969 43.0509 20.1827 44.9492C19.3964 46.8475 18.9944 48.8828 19.0001 50.9375ZM34.6398 37.4228C41.7343 37.4228 47.5696 42.9176 48.1132 49.875H21.1664C21.71 42.9176 27.5453 37.4228 34.6398 37.4228Z" fill="white"/>
</svg>
